<svg width="1280" height="380" viewBox="0 0 1280 380" fill="none" xmlns="http://www.w3.org/2000/svg">
  <title>RuneSpace SDK — Go client for encrypted vector search</title>
  <defs>
    <linearGradient id="bg" x1="30" y1="12" x2="1228" y2="380" gradientUnits="userSpaceOnUse"><stop stop-color="#101f35"/><stop offset=".58" stop-color="#0a1728"/><stop offset="1" stop-color="#07111e"/></linearGradient><radialGradient id="glow" cx="0" cy="0" r="1" gradientUnits="userSpaceOnUse" gradientTransform="translate(220 190) rotate(90) scale(250 280)"><stop stop-color="#38e6c0" stop-opacity=".2"/><stop offset=".62" stop-color="#1bc2a7" stop-opacity=".06"/><stop offset="1" stop-color="#07111e" stop-opacity="0"/></radialGradient><linearGradient id="line" x1="430" y1="0" x2="1168" y2="0" gradientUnits="userSpaceOnUse"><stop stop-color="#5cffd6" stop-opacity=".74"/><stop offset="1" stop-color="#5cffd6" stop-opacity="0"/></linearGradient>
    <linearGradient id="mark-a" x1="110" y1="116" x2="230" y2="395" gradientUnits="userSpaceOnUse"><stop stop-color="#7ff5dd"/><stop offset="1" stop-color="#29bda7"/></linearGradient><linearGradient id="mark-b" x1="260" y1="72" x2="430" y2="320" gradientUnits="userSpaceOnUse"><stop stop-color="#ccfff3"/><stop offset="1" stop-color="#5cffd6"/></linearGradient><linearGradient id="mark-c" x1="342" y1="294" x2="292" y2="468" gradientUnits="userSpaceOnUse"><stop stop-color="#2ac6a8"/><stop offset="1" stop-color="#189e86"/></linearGradient><pattern id="dots" width="28" height="28" patternUnits="userSpaceOnUse"><circle cx="1.5" cy="1.5" r="1.5" fill="#b8fff0" fill-opacity=".08"/></pattern><clipPath id="frame"><rect width="1280" height="380" rx="28"/></clipPath>
  </defs>
  <g clip-path="url(#frame)"><rect width="1280" height="380" fill="url(#bg)"/><rect width="1280" height="380" fill="url(#dots)"/><rect width="520" height="380" fill="url(#glow)"/>
    <g transform="translate(48 23) scale(.64)"><path d="M365 281 L440 341 L259 475 L259 352 Z" fill="url(#mark-c)"/><path d="M257 64 L440 201 L440 341 L365 281 L258 201 Z" fill="url(#mark-b)"/><path d="M257 64 L95 185 L95 351 L164 401 L265 313 L190 260 L258 201 Z" fill="url(#mark-a)"/><path d="M95 351 L258 201 L190 260 L265 313 L164 401 Z" fill="#178c7e" opacity=".38"/></g>
    <rect x="430" y="50" width="294" height="34" rx="17" fill="#5cffd6" fill-opacity=".08" stroke="#7ff5dd" stroke-opacity=".3"/><circle cx="449" cy="67" r="4" fill="#5cffd6"/><text x="464" y="72" fill="#aafbeb" font-family="Inter,ui-sans-serif,system-ui,sans-serif" font-size="12" font-weight="700" letter-spacing="1.3">FHE VECTOR SEARCH CLIENT</text>
    <text x="425" y="183" fill="#f5fbff" font-family="Inter,ui-sans-serif,system-ui,sans-serif" font-size="88" font-weight="800" letter-spacing="2.5">RUNESPACE SDK</text>
    <text x="432" y="226" fill="#dce9f3" font-family="Inter,ui-sans-serif,system-ui,sans-serif" font-size="28" font-weight="600">Build against encrypted vector search.</text>
    <text x="432" y="264" fill="#91a6b8" font-family="Inter,ui-sans-serif,system-ui,sans-serif" font-size="17">Go APIs for key management, dual-tier encryption, and retrieval.</text>
    <rect x="430" y="307" width="738" height="1" fill="url(#line)"/><text x="432" y="346" fill="#7ff5dd" font-family="ui-monospace,SFMono-Regular,Menlo,monospace" font-size="14" font-weight="700" letter-spacing="1.35">GO + CGO</text><circle cx="530" cy="341" r="2.5" fill="#587083"/><text x="552" y="346" fill="#7ff5dd" font-family="ui-monospace,SFMono-Regular,Menlo,monospace" font-size="14" font-weight="700" letter-spacing="1.35">RMP + MM</text><circle cx="650" cy="341" r="2.5" fill="#587083"/><text x="672" y="346" fill="#7ff5dd" font-family="ui-monospace,SFMono-Regular,Menlo,monospace" font-size="14" font-weight="700" letter-spacing="1.35">CLIENT CRYPTO</text>
    <circle cx="1138" cy="67" r="4" fill="#5cffd6" fill-opacity=".65"/><circle cx="1168" cy="67" r="4" fill="#5cffd6" fill-opacity=".3"/><circle cx="1198" cy="67" r="4" fill="#5cffd6" fill-opacity=".12"/>
  </g>
</svg>
